<svg xmlns="http://www.w3.org/2000/svg" width="600" height="800" viewBox="0 0 600 800" role="img" aria-label="前夫他装作不爱我">
  <defs>
    <radialGradient id="bg" cx="50%" cy="38%" r="75%">
      <stop offset="0" stop-color="#3a2a22"/>
      <stop offset="0.5" stop-color="#241a17"/>
      <stop offset="1" stop-color="#0e0b0a"/>
    </radialGradient>
    <radialGradient id="iris" cx="50%" cy="50%" r="50%">
      <stop offset="0" stop-color="#fff7e0"/>
      <stop offset="0.35" stop-color="#d9a441"/>
      <stop offset="1" stop-color="#7a4e16"/>
    </radialGradient>
    <linearGradient id="gold" x1="0" y1="0" x2="0" y2="1">
      <stop offset="0" stop-color="#fff3cf"/>
      <stop offset="0.5" stop-color="#d9a441"/>
      <stop offset="1" stop-color="#b07d2c"/>
    </linearGradient>
    <filter id="glow" x="-60%" y="-60%" width="220%" height="220%">
      <feGaussianBlur stdDeviation="9" result="b"/>
      <feMerge><feMergeNode in="b"/><feMergeNode in="SourceGraphic"/></feMerge>
    </filter>
  </defs>

  <rect width="600" height="800" fill="url(#bg)"/>
  <rect x="22" y="22" width="556" height="756" fill="none" stroke="#d9a441" stroke-opacity="0.45" stroke-width="1.5"/>

  <text x="300" y="92" class="tag">都市　言情　破镜重圆</text>

  <!-- 眼睛主视觉 -->
  <g filter="url(#glow)">
    <line x1="392.0" y1="300.0" x2="438.0" y2="300.0" stroke="#d9a441" stroke-width="2" stroke-opacity="0.5"/><line x1="388.9" y1="323.8" x2="414.0" y2="330.5" stroke="#d9a441" stroke-width="2" stroke-opacity="0.5"/><line x1="379.7" y1="346.0" x2="419.5" y2="369.0" stroke="#d9a441" stroke-width="2" stroke-opacity="0.5"/><line x1="365.1" y1="365.1" x2="383.4" y2="383.4" stroke="#d9a441" stroke-width="2" stroke-opacity="0.5"/><line x1="346.0" y1="379.7" x2="369.0" y2="419.5" stroke="#d9a441" stroke-width="2" stroke-opacity="0.5"/><line x1="323.8" y1="388.9" x2="330.5" y2="414.0" stroke="#d9a441" stroke-width="2" stroke-opacity="0.5"/><line x1="300.0" y1="392.0" x2="300.0" y2="438.0" stroke="#d9a441" stroke-width="2" stroke-opacity="0.5"/><line x1="276.2" y1="388.9" x2="269.5" y2="414.0" stroke="#d9a441" stroke-width="2" stroke-opacity="0.5"/><line x1="254.0" y1="379.7" x2="231.0" y2="419.5" stroke="#d9a441" stroke-width="2" stroke-opacity="0.5"/><line x1="234.9" y1="365.1" x2="216.6" y2="383.4" stroke="#d9a441" stroke-width="2" stroke-opacity="0.5"/><line x1="220.3" y1="346.0" x2="180.5" y2="369.0" stroke="#d9a441" stroke-width="2" stroke-opacity="0.5"/><line x1="211.1" y1="323.8" x2="186.0" y2="330.5" stroke="#d9a441" stroke-width="2" stroke-opacity="0.5"/><line x1="208.0" y1="300.0" x2="162.0" y2="300.0" stroke="#d9a441" stroke-width="2" stroke-opacity="0.5"/><line x1="211.1" y1="276.2" x2="186.0" y2="269.5" stroke="#d9a441" stroke-width="2" stroke-opacity="0.5"/><line x1="220.3" y1="254.0" x2="180.5" y2="231.0" stroke="#d9a441" stroke-width="2" stroke-opacity="0.5"/><line x1="234.9" y1="234.9" x2="216.6" y2="216.6" stroke="#d9a441" stroke-width="2" stroke-opacity="0.5"/><line x1="254.0" y1="220.3" x2="231.0" y2="180.5" stroke="#d9a441" stroke-width="2" stroke-opacity="0.5"/><line x1="276.2" y1="211.1" x2="269.5" y2="186.0" stroke="#d9a441" stroke-width="2" stroke-opacity="0.5"/><line x1="300.0" y1="208.0" x2="300.0" y2="162.0" stroke="#d9a441" stroke-width="2" stroke-opacity="0.5"/><line x1="323.8" y1="211.1" x2="330.5" y2="186.0" stroke="#d9a441" stroke-width="2" stroke-opacity="0.5"/><line x1="346.0" y1="220.3" x2="369.0" y2="180.5" stroke="#d9a441" stroke-width="2" stroke-opacity="0.5"/><line x1="365.1" y1="234.9" x2="383.4" y2="216.6" stroke="#d9a441" stroke-width="2" stroke-opacity="0.5"/><line x1="379.7" y1="254.0" x2="419.5" y2="231.0" stroke="#d9a441" stroke-width="2" stroke-opacity="0.5"/><line x1="388.9" y1="276.2" x2="414.0" y2="269.5" stroke="#d9a441" stroke-width="2" stroke-opacity="0.5"/>
    <path d="M170 300 Q300 196 430 300 Q300 404 170 300 Z" fill="none" stroke="#d9a441" stroke-width="4"/>
    <circle cx="300" cy="300" r="60" fill="url(#iris)"/>
    <circle cx="300" cy="300" r="26" fill="#0a0a0a"/>
    <circle cx="283" cy="284" r="9" fill="#fff" opacity="0.9"/>
  </g>

  <!-- 标题 -->
  <text x="300" y="568" class="title" style="font-size:64px">前夫他装作不爱我</text>
  <text x="300" y="628" class="tagline">他装了三年的不爱 · 我补了三年的碎瓷</text>

  <line x1="200" y1="690" x2="400" y2="690" stroke="#d9a441" stroke-opacity="0.6" stroke-width="1.5"/>
  <text x="300" y="742" class="author">观山海</text>

  <style>
    .title { fill: url(#gold); font-family: 'Noto Serif SC','Songti SC',serif; font-weight: 700; text-anchor: middle; letter-spacing: 6px; stroke: #2a1c06; stroke-width: 1px; paint-order: stroke; }
    .tagline { fill: #f3ead6; font-family: 'Noto Serif SC',serif; font-size: 30px; text-anchor: middle; letter-spacing: 4px; }
    .tag { fill: #d9a441; fill-opacity: 0.85; font-family: sans-serif; font-size: 22px; text-anchor: middle; letter-spacing: 4px; }
    .author { fill: #cdbfa6; font-family: 'Noto Serif SC',serif; font-size: 24px; text-anchor: middle; letter-spacing: 3px; }
  </style>
</svg>